<svg width="48" height="48" viewBox="0 0 48 48" fill="none" xmlns="http://www.w3.org/2000/svg">
  <g clip-path="url(#clip0_1_78)">
    <path
      d="M36.75 0H11.25C5.0368 0 0 5.0368 0 11.25V36.75C0 42.9632 5.0368 48 11.25 48H36.75C42.9632 48 48 42.9632 48 36.75V11.25C48 5.0368 42.9632 0 36.75 0Z"
      fill="#242938" />
    <path fill-rule="evenodd" clip-rule="evenodd"
      d="M40.4711 14.6838C40.4831 14.7295 40.4895 14.7766 40.4895 14.8238V22.1737C40.4895 22.2681 40.4649 22.3607 40.4184 22.4422C40.3718 22.524 40.3046 22.5917 40.224 22.6386L34.1404 26.1902V33.2299C34.1404 33.4215 34.0401 33.5983 33.8762 33.6949L21.1772 41.1077C21.1481 41.1244 21.1164 41.1351 21.0848 41.1465C21.0728 41.1506 21.0617 41.1579 21.0491 41.1613C20.9603 41.1849 20.8671 41.1849 20.7782 41.1613C20.7638 41.1572 20.7504 41.1491 20.7366 41.1439C20.7075 41.1332 20.6771 41.1238 20.6494 41.1077L7.95308 33.6949C7.87241 33.6478 7.8054 33.5801 7.75877 33.4986C7.71214 33.417 7.68756 33.3242 7.6875 33.2299V11.1804C7.6875 11.1322 7.6941 11.0853 7.70599 11.0397C7.70996 11.0243 7.71921 11.0102 7.72449 10.9948C7.73439 10.9667 7.74366 10.9379 7.75819 10.9118C7.76809 10.8943 7.78262 10.8803 7.79453 10.8642C7.80971 10.8428 7.82359 10.8207 7.84142 10.8019C7.85661 10.7865 7.87643 10.7751 7.89362 10.7617C7.91276 10.7456 7.92994 10.7282 7.95174 10.7155H7.9524L14.3009 7.00909C14.3813 6.96219 14.4724 6.9375 14.5651 6.9375C14.6579 6.9375 14.749 6.96219 14.8294 7.00909L21.1779 10.7155H21.1793C21.2003 10.7289 21.2183 10.7456 21.2374 10.7611C21.2544 10.7744 21.2736 10.7865 21.2888 10.8012C21.3073 10.8207 21.3206 10.8428 21.3364 10.8642C21.3476 10.8803 21.3628 10.8943 21.372 10.9118C21.3872 10.9386 21.3958 10.9667 21.4065 10.9948C21.4118 11.0102 21.4209 11.0243 21.4249 11.0404C21.4371 11.086 21.4433 11.1331 21.4434 11.1804V24.9523L26.7336 21.8636V14.8232C26.7336 14.7763 26.7401 14.7287 26.7521 14.6838C26.7568 14.6677 26.7652 14.6537 26.7707 14.6383C26.7812 14.6101 26.7904 14.5813 26.805 14.5552C26.8149 14.5378 26.8294 14.5237 26.8406 14.5077C26.8566 14.4862 26.8697 14.4641 26.8883 14.4454C26.9034 14.4299 26.9226 14.4186 26.9398 14.4052C26.9595 14.3891 26.9768 14.3717 26.9979 14.3589H26.9987L33.3478 10.6525C33.4281 10.6056 33.5192 10.5808 33.612 10.5808C33.7048 10.5808 33.7959 10.6056 33.8762 10.6525L40.2248 14.3589C40.2473 14.3723 40.2643 14.3891 40.2842 14.4045C40.3007 14.4179 40.3198 14.4299 40.335 14.4447C40.3536 14.4641 40.3667 14.4862 40.3826 14.5077C40.3944 14.5237 40.4091 14.5378 40.4183 14.5552C40.4334 14.5813 40.4421 14.6101 40.4526 14.6383C40.4586 14.6537 40.4672 14.6677 40.4711 14.6838ZM39.4313 21.8636V15.7516L37.2096 17.0485L34.1404 18.8404V24.9523L39.4318 21.8636H39.4313ZM33.0827 32.9197V26.8039L30.0638 28.5523L21.4427 33.5415V39.7149L33.0827 32.9197ZM8.74581 12.1082V32.9197L20.3844 39.7144V33.5421L14.3042 30.0527L14.3022 30.0514L14.2996 30.0501C14.2791 30.0381 14.2619 30.0206 14.2427 30.0058C14.2262 29.9925 14.2071 29.9818 14.1926 29.967L14.1912 29.9651C14.1741 29.9482 14.1622 29.9276 14.1476 29.9087C14.1344 29.8907 14.1186 29.8753 14.108 29.8566L14.1072 29.8545C14.0954 29.8344 14.0881 29.8102 14.0795 29.7876C14.0709 29.7675 14.0597 29.7487 14.0544 29.7272V29.7264C14.0478 29.7011 14.0465 29.6743 14.0438 29.6481C14.0412 29.628 14.0359 29.6079 14.0359 29.5879V29.5866V15.197L10.9674 13.4044L8.74581 12.1088V12.1082ZM14.5658 8.09295L9.27628 11.1804L14.5645 14.2678L19.8533 11.1797L14.5645 8.09295H14.5658ZM17.3166 27.3611L20.3852 25.5699V12.1082L18.1635 13.405L15.0943 15.1969V28.6588L17.3166 27.3611ZM33.612 11.7364L28.323 14.8238L33.612 17.9113L38.9001 14.8232L33.612 11.7364ZM33.0827 18.8404L30.0135 17.0485L27.792 15.7516V21.8636L30.8604 23.6548L33.0827 24.9523V18.8404ZM20.913 32.6137L28.6704 28.1227L32.5483 25.8787L27.2634 22.7932L21.1785 26.3456L15.6327 29.5832L20.913 32.6137Z"
      fill="#FF2D20" />
  </g>
  <defs>
    <clipPath id="clip0_1_78">
      <rect width="48" height="48" fill="white" />
    </clipPath>
  </defs>
</svg>
