<svg width="48" height="48" viewBox="0 0 48 48" fill="none" xmlns="http://www.w3.org/2000/svg">
<g clip-path="url(#clip0_1_27)">
<path d="M36.75 0H11.25C5.0368 0 0 5.0368 0 11.25V36.75C0 42.9632 5.0368 48 11.25 48H36.75C42.9632 48 48 42.9632 48 36.75V11.25C48 5.0368 42.9632 0 36.75 0Z" fill="#242938"/>
<path fill-rule="evenodd" clip-rule="evenodd" d="M38.2161 12.9066L26.3773 5.8791C24.9643 5.0403 23.2226 5.0403 21.8096 5.8791L9.97076 12.9066C8.55814 13.7455 7.6875 15.2953 7.6875 16.9729V31.0281C7.6875 32.7052 8.55814 34.2559 9.97117 35.0947L21.81 42.1209C22.5165 42.5406 23.3044 42.7498 24.0936 42.7498C24.8824 42.7498 25.6704 42.5406 26.3769 42.1209L38.2157 35.0947C39.6287 34.2559 40.4998 32.7052 40.4998 31.0281V16.9729C40.4998 15.2953 39.6287 13.7455 38.2161 12.9066Z" fill="#242938"/>
<path fill-rule="evenodd" clip-rule="evenodd" d="M22.2238 41.4015L10.385 34.3752C9.22703 33.6878 8.5077 32.4053 8.5077 31.0279V16.9732C8.5077 15.5957 9.22704 14.3133 10.3846 13.6262L22.2238 6.59868C22.7914 6.26174 23.4379 6.08356 24.0936 6.08356C24.7489 6.08356 25.3954 6.26174 25.9635 6.59868L37.8022 13.6262C38.778 14.2054 39.4361 15.2083 39.6212 16.3332C39.2286 15.4952 38.343 15.2674 37.3112 15.8702L26.1111 22.7882C24.7146 23.6046 23.6848 24.5207 23.6839 26.2047V40.0054C23.6831 41.0138 24.0904 41.6668 24.7159 41.8562C24.5104 41.8918 24.3032 41.9166 24.0936 41.9166C23.4379 41.9166 22.7914 41.7385 22.2238 41.4015ZM38.2161 12.9065L26.3773 5.87933C25.6708 5.45973 24.882 5.25012 24.0936 5.25012C23.3049 5.25012 22.5161 5.45973 21.8096 5.87933L9.97076 12.9065C8.55814 13.7453 7.6875 15.2955 7.6875 16.9732V31.0279C7.6875 32.7051 8.55814 34.2557 9.97117 35.0946L21.81 42.1212C22.5169 42.5404 23.3049 42.75 24.0936 42.75C24.8824 42.75 25.6704 42.5404 26.3769 42.1212L38.2161 35.0946C39.6291 34.2557 40.4998 32.7051 40.4998 31.0279V16.9732C40.4998 15.2955 39.6291 13.7453 38.2161 12.9065Z" fill="white"/>
<path fill-rule="evenodd" clip-rule="evenodd" d="M35.1126 32.3866L32.1647 34.151C32.0865 34.1966 32.0291 34.2478 32.0286 34.3417V35.1131C32.0286 35.2074 32.0919 35.2466 32.1699 35.2006L35.1636 33.3813C35.2416 33.3358 35.2536 33.2486 35.2541 33.1546V32.4742C35.2541 32.3805 35.1908 32.3411 35.1126 32.3866Z" fill="#47B353"/>
<path fill-rule="evenodd" clip-rule="evenodd" d="M28.8352 25.8934C28.9307 25.845 29.0093 25.9044 29.0106 26.0293L29.0205 27.0491C29.4474 26.8793 29.8183 26.8339 30.1543 26.9115C30.2272 26.931 30.2595 27.0302 30.2297 27.1479L30.0052 28.0517C29.9878 28.1199 29.9494 28.1889 29.9031 28.2319C29.8836 28.251 29.8637 28.2658 29.844 28.2758C29.8138 28.2911 29.784 28.296 29.7555 28.2902C29.6021 28.2555 29.2374 28.1758 28.6637 28.4664C28.0618 28.7711 27.8512 29.2941 27.8554 29.6822C27.8604 30.1457 28.0982 30.2861 28.9191 30.3002C30.0129 30.3184 30.4856 30.7963 30.4971 31.8981C30.5083 32.9799 29.9308 34.1417 29.0473 34.8536L29.0668 35.8631C29.0679 35.9846 28.989 36.1239 28.8936 36.1723L28.2956 36.5168C28.1998 36.5651 28.1213 36.5055 28.1199 36.384L28.1096 35.391C27.5976 35.6038 27.0786 35.6552 26.7471 35.5221C26.6846 35.4977 26.6578 35.4054 26.6826 35.3004L26.8993 34.3877C26.9166 34.3157 26.9546 34.2437 27.0064 34.1979C27.0246 34.1801 27.0435 34.1664 27.0624 34.1569C27.0967 34.1396 27.1303 34.1359 27.1588 34.1466C27.516 34.2669 27.9729 34.2107 28.4122 33.9883C28.9704 33.7059 29.3437 33.1367 29.3379 32.5712C29.3325 32.058 29.0548 31.8448 28.3793 31.8398C27.5194 31.8422 26.7178 31.6727 26.7045 30.4069C26.6938 29.3648 27.2357 28.2803 28.0935 27.5946L28.0828 26.5755C28.0815 26.4503 28.158 26.3124 28.2564 26.2629L28.8352 25.8934Z" fill="#242938"/>
</g>
<defs>
<clipPath id="clip0_1_27">
<rect width="48" height="48" fill="white"/>
</clipPath>
</defs>
</svg>
