<svg width="48" height="48" viewBox="0 0 48 48" fill="none" xmlns="http://www.w3.org/2000/svg">
<g clip-path="url(#clip0_134_15)">
<path d="M36.75 0H11.25C5.0368 0 0 5.0368 0 11.25V36.75C0 42.9632 5.0368 48 11.25 48H36.75C42.9632 48 48 42.9632 48 36.75V11.25C48 5.0368 42.9632 0 36.75 0Z" fill="#394AAB"/>
<path d="M25.1252 6.1875C31.7145 6.1875 37.4677 9.76618 40.5491 15.0855L40.5191 15.0343L32.7662 19.4983C31.2388 16.9121 28.4385 15.1667 25.2262 15.1308L25.1252 15.1302C20.2266 15.1302 16.2552 19.1014 16.2552 23.9998C16.2552 25.6018 16.6823 27.1035 17.425 28.4004C18.954 31.0695 21.828 32.8699 25.1252 32.8699C28.4424 32.8699 31.3329 31.0466 32.8541 28.3491L32.8172 28.4137L40.5583 32.8984C37.5107 38.1727 31.8364 41.7403 25.3236 41.8114L25.1252 41.8125C18.5149 41.8125 12.7454 38.2118 9.67162 32.8643C8.17108 30.2537 7.3125 27.2272 7.3125 23.9998C7.3125 14.1625 15.2873 6.1875 25.1252 6.1875Z" fill="white"/>
</g>
<defs>
<clipPath id="clip0_134_15">
<rect width="48" height="48" fill="white"/>
</clipPath>
</defs>
</svg>
