<svg width="48" height="48" viewBox="0 0 48 48" fill="none" xmlns="http://www.w3.org/2000/svg">
<g clip-path="url(#clip0_1_44)">
<path d="M36.75 0H11.25C5.0368 0 0 5.0368 0 11.25V36.75C0 42.9632 5.0368 48 11.25 48H36.75C42.9632 48 48 42.9632 48 36.75V11.25C48 5.0368 42.9632 0 36.75 0Z" fill="#2396ED"/>
<path d="M26.4726 22.8981H30.357V19.3836H26.4726V22.8981ZM21.8484 22.8981H25.7327V19.3836H21.8484V22.8981ZM17.3166 22.8981H21.201V19.3836H17.3166V22.8981ZM12.7849 22.8981H16.5767V19.3836H12.7849V22.8981ZM8.16062 22.8981H12.045V19.3836H8.16062V22.8981ZM12.7849 18.6437H16.5767V15.1293H12.7849V18.6437ZM17.3166 18.6437H21.201V15.1293H17.3166V18.6437ZM21.8484 18.6437H25.7327V15.1293H21.8484V18.6437ZM21.8484 14.3894H25.7327V10.875H21.8484V14.3894ZM42.75 21.3259C42.75 21.3259 41.0852 19.7535 37.6633 20.3085C37.2934 17.6264 34.4263 16.0542 34.4263 16.0542C34.4263 16.0542 31.7443 19.2911 33.6864 22.8981C33.1316 23.1756 32.2067 23.5455 30.8194 23.5455H5.38607C4.92364 25.3027 4.92364 36.9557 17.6866 36.9557C26.8425 36.9557 33.6864 32.7015 36.9234 24.9326C41.7326 25.3027 42.75 21.3259 42.75 21.3259Z" fill="white"/>
</g>
<defs>
<clipPath id="clip0_1_44">
<rect width="48" height="48" fill="white"/>
</clipPath>
</defs>
</svg>
