<svg width="48" height="48" viewBox="0 0 48 48" fill="none" xmlns="http://www.w3.org/2000/svg">
<g clip-path="url(#clip0_1_51)">
<path d="M36.75 0H11.25C5.0368 0 0 5.0368 0 11.25V36.75C0 42.9632 5.0368 48 11.25 48H36.75C42.9632 48 48 42.9632 48 36.75V11.25C48 5.0368 42.9632 0 36.75 0Z" fill="#242938"/>
<path d="M17.69 42.7501C21.1401 42.7501 23.94 39.9501 23.94 36.5001V30.25H17.69C14.24 30.25 11.44 33.0501 11.44 36.5001C11.44 39.9501 14.24 42.7501 17.69 42.7501Z" fill="#0ACF83"/>
<path d="M11.44 24C11.44 20.55 14.24 17.75 17.69 17.75H23.94V30.2499H17.69C14.24 30.2499 11.44 27.45 11.44 24Z" fill="#A259FF"/>
<path d="M11.44 11.5C11.44 8.04999 14.24 5.25 17.69 5.25H23.94V17.75H17.69C14.24 17.75 11.44 14.95 11.44 11.5Z" fill="#F24E1E"/>
<path d="M23.94 5.25H30.1899C33.6399 5.25 36.4401 8.04999 36.4401 11.5C36.4401 14.95 33.6399 17.75 30.1899 17.75H23.94V5.25Z" fill="#FF7262"/>
<path d="M36.4401 24C36.4401 27.45 33.6399 30.2499 30.1899 30.2499C26.7399 30.2499 23.94 27.45 23.94 24C23.94 20.55 26.7399 17.75 30.1899 17.75C33.6399 17.75 36.4401 20.55 36.4401 24Z" fill="#1ABCFE"/>
</g>
<defs>
<clipPath id="clip0_1_51">
<rect width="48" height="48" fill="white"/>
</clipPath>
</defs>
</svg>
