<svg width="48" height="48" viewBox="0 0 48 48" fill="none" xmlns="http://www.w3.org/2000/svg">
<g clip-path="url(#clip0_1_63)">
<path d="M36.75 0H11.25C5.0368 0 0 5.0368 0 11.25V36.75C0 42.9632 5.0368 48 11.25 48H36.75C42.9632 48 48 42.9632 48 36.75V11.25C48 5.0368 42.9632 0 36.75 0Z" fill="#242938"/>
<path d="M24.0002 5.625C13.6461 5.625 5.25 14.0195 5.25 24.3752C5.25 32.6595 10.6225 39.6878 18.0725 42.1671C19.0095 42.3407 19.3536 41.7604 19.3536 41.2652C19.3536 40.818 19.3361 39.3411 19.3281 37.7743C14.1118 38.9085 13.0111 35.562 13.0111 35.562C12.1582 33.3947 10.9293 32.8185 10.9293 32.8185C9.22806 31.6547 11.0575 31.6787 11.0575 31.6787C12.9403 31.8109 13.9317 33.6109 13.9317 33.6109C15.6041 36.4774 18.3181 35.6486 19.3881 35.1696C19.5564 33.9576 20.0422 33.1305 20.5785 32.6623C16.4138 32.1881 12.0359 30.5803 12.0359 23.3959C12.0359 21.3488 12.7683 19.6761 13.9678 18.363C13.7731 17.8908 13.1313 15.9837 14.1494 13.401C14.1494 13.401 15.7239 12.8971 19.3071 15.323C20.8028 14.9075 22.4066 14.6992 24.0002 14.6921C25.5936 14.6992 27.1989 14.9075 28.6973 15.323C32.2761 12.8971 33.8484 13.401 33.8484 13.401C34.869 15.9837 34.227 17.8908 34.0322 18.363C35.2344 19.6761 35.9619 21.3488 35.9619 23.3959C35.9619 30.5976 31.5756 32.1833 27.4003 32.6473C28.0729 33.2293 28.6721 34.3703 28.6721 36.1196C28.6721 38.6284 28.6504 40.6476 28.6504 41.2652C28.6504 41.7641 28.9879 42.3488 29.9383 42.1646C37.3843 39.6825 42.75 32.6567 42.75 24.3752C42.75 14.0195 34.3551 5.625 24.0002 5.625ZM12.2725 32.3349C12.2312 32.4281 12.0847 32.4561 11.9512 32.3921C11.8152 32.331 11.7388 32.2039 11.7829 32.1105C11.8233 32.0145 11.9701 31.9879 12.1058 32.0522C12.2421 32.1133 12.3197 32.2416 12.2725 32.3349ZM13.1948 33.1579C13.1054 33.2409 12.9306 33.2023 12.812 33.0713C12.6894 32.9406 12.6664 32.7658 12.757 32.6816C12.8493 32.5988 13.0188 32.6376 13.1417 32.7683C13.2644 32.9006 13.2883 33.0741 13.1948 33.1579ZM13.8276 34.2109C13.7127 34.2908 13.5248 34.2159 13.4087 34.0491C13.2938 33.8824 13.2938 33.6825 13.4112 33.6023C13.5276 33.5222 13.7127 33.5942 13.8304 33.7598C13.9449 33.9293 13.9449 34.1293 13.8276 34.2109ZM14.8977 35.4304C14.7949 35.5436 14.576 35.5133 14.4158 35.3586C14.2518 35.2074 14.2062 34.9929 14.3093 34.8795C14.4133 34.7659 14.6334 34.7979 14.7949 34.9513C14.9576 35.1021 15.0073 35.3183 14.8977 35.4304ZM16.2806 35.8419C16.2353 35.9889 16.0245 36.0557 15.8121 35.9933C15.6 35.9289 15.4613 35.757 15.5041 35.6085C15.5482 35.4608 15.7599 35.3912 15.9739 35.4579C16.1856 35.5219 16.3247 35.6927 16.2806 35.8419ZM17.8545 36.0167C17.8598 36.1712 17.6797 36.2994 17.4568 36.3023C17.2326 36.3073 17.0513 36.1821 17.0488 36.03C17.0488 35.8738 17.2249 35.7469 17.449 35.7431C17.672 35.7388 17.8545 35.8629 17.8545 36.0167ZM19.4006 35.9574C19.4274 36.1082 19.2726 36.2633 19.0511 36.3045C18.8334 36.3443 18.6319 36.2511 18.6043 36.1014C18.5773 35.9468 18.735 35.7919 18.9523 35.7518C19.1741 35.7133 19.3725 35.8041 19.4006 35.9574Z" fill="white"/>
</g>
<defs>
<clipPath id="clip0_1_63">
<rect width="48" height="48" fill="white"/>
</clipPath>
</defs>
</svg>
