<svg width="48" height="48" viewBox="0 0 48 48" fill="none" xmlns="http://www.w3.org/2000/svg">
<g clip-path="url(#clip0_134_47)">
<path d="M36.75 0H11.25C5.0368 0 0 5.0368 0 11.25V36.75C0 42.9632 5.0368 48 11.25 48H36.75C42.9632 48 48 42.9632 48 36.75V11.25C48 5.0368 42.9632 0 36.75 0Z" fill="#430098"/>
<path d="M13.125 40.875V31.2321L18.5491 36.0536L13.125 40.875ZM30 40.875V26.4771C29.9766 25.3519 29.4347 24 26.9867 24C22.0845 24 16.5856 26.4656 16.5307 26.4902L13.125 28.0331V7.125H17.9464V20.8125C20.3535 20.0289 23.7182 19.1786 26.9867 19.1786C29.9668 19.1786 31.7507 20.3501 32.7223 21.3332C34.7961 23.4304 34.8244 26.1021 34.8216 26.4107V40.875H30ZM31.2054 14.9598H26.3839C28.2788 12.4738 29.4684 9.85755 30 7.125H34.8214C34.4961 9.86357 33.3859 12.4888 31.2054 14.9598Z" fill="white"/>
</g>
<defs>
<clipPath id="clip0_134_47">
<rect width="48" height="48" fill="white"/>
</clipPath>
</defs>
</svg>
