<svg width="48" height="48" viewBox="0 0 48 48" fill="none" xmlns="http://www.w3.org/2000/svg">
<g clip-path="url(#clip0_1_75)">
<path d="M36.75 0H11.25C5.0368 0 0 5.0368 0 11.25V36.75C0 42.9632 5.0368 48 11.25 48H36.75C42.9632 48 48 42.9632 48 36.75V11.25C48 5.0368 42.9632 0 36.75 0Z" fill="#99424F"/>
<path d="M40.0037 23.7178C40.0037 21.4594 38.4512 19.5594 36.3667 19.0166L41.0351 5.25H17.8989L22.5784 19.0601C20.5588 19.6464 19.0716 21.5138 19.0716 23.7285C19.0716 25.3571 19.8857 26.8011 21.1234 27.6913C20.6349 28.3862 20.0704 29.0269 19.4297 29.6348C18.2246 30.7639 16.8893 31.6324 15.4453 32.2078C14.1424 31.3284 13.5779 29.7759 14.0882 28.3862C16.075 27.7783 17.519 25.9217 17.519 23.7394C17.519 21.0577 15.3367 18.8863 12.6659 18.8863C9.98421 18.8863 7.80195 21.0686 7.80195 23.7502C7.80195 25.0747 8.3448 26.2909 9.21336 27.1594C9.13736 27.3114 9.06137 27.4633 8.98536 27.6262C8.25795 29.1246 7.43282 30.8182 7.11797 32.7182C6.48825 36.5181 7.51967 39.5689 10.0059 41.2952C11.4065 42.2614 12.9482 42.75 14.6093 42.75C17.4647 42.75 20.3634 41.3169 23.1645 39.9272C25.1623 38.9393 27.225 37.9078 29.2553 37.4083C30.0045 37.2238 30.7862 37.1153 31.6114 36.9958C33.2833 36.7569 35.0096 36.5072 36.5621 35.6061C38.3752 34.5531 39.6129 32.7941 39.9712 30.7747C40.2426 29.2222 39.9712 27.6589 39.2764 26.2909C39.7432 25.5416 40.0037 24.6623 40.0037 23.7178ZM37.8866 23.7178C37.8866 25.2268 36.6598 26.4536 35.1506 26.4536C33.6416 26.4536 32.4148 25.2268 32.4148 23.7178C32.4148 23.2292 32.5449 22.7623 32.7729 22.3607C32.8599 22.2086 32.9685 22.0566 33.0771 21.9263C33.1856 21.7961 33.3159 21.6767 33.4569 21.5681L33.4678 21.5573C33.5546 21.492 33.6525 21.4269 33.7502 21.3617C33.7502 21.3617 33.7611 21.3617 33.7611 21.3508C33.8044 21.3293 33.8479 21.2966 33.8912 21.2749C33.9021 21.2749 33.9129 21.264 33.9238 21.264C33.9673 21.2422 34.0215 21.2207 34.0759 21.1989C34.1301 21.1772 34.1844 21.1554 34.2278 21.1337C34.2386 21.1337 34.2495 21.1228 34.2604 21.1228C34.3039 21.1121 34.3472 21.0904 34.3907 21.0795C34.4016 21.0795 34.4233 21.0686 34.4342 21.0686C34.4884 21.0577 34.5319 21.0469 34.5861 21.036H34.5969L34.7599 21.0036C34.7708 21.0036 34.7923 21.0036 34.8032 20.9927C34.8467 20.9927 34.8902 20.9818 34.9335 20.9818H34.9879C35.0421 20.9818 35.0964 20.9709 35.1615 20.9709H35.3027C35.3462 20.9709 35.3786 20.9709 35.4221 20.9818H35.4439C35.5307 20.9927 35.6175 21.0036 35.7043 21.0251C36.942 21.2858 37.8866 22.3931 37.8866 23.7178ZM20.928 7.4214H38.0061L34.0868 18.984C33.9238 19.0166 33.7611 19.071 33.5981 19.1252L29.4726 10.7111L25.3359 19.071C25.1732 19.0166 24.9994 18.984 24.8258 18.9516L20.928 7.4214ZM28.6907 22.7732C28.4844 21.7526 27.9634 20.8406 27.225 20.1675L29.4726 15.6293L31.7415 20.2652C31.0684 20.9383 30.5799 21.7961 30.3844 22.7732H28.6907ZM23.2515 21.0577C23.3057 21.0469 23.3492 21.036 23.4034 21.0251H23.436C23.4795 21.0143 23.5228 21.0142 23.5663 21.0036H23.6096C23.6531 21.0036 23.6858 20.9927 23.7291 20.9927H24.1526C24.1959 20.9927 24.2286 21.0036 24.2612 21.0036C24.2829 21.0036 24.2936 21.0036 24.3154 21.0142C24.3589 21.0251 24.3915 21.0251 24.4348 21.036C24.4457 21.036 24.4566 21.036 24.4783 21.0469C24.5325 21.0577 24.5869 21.0686 24.6302 21.0795H24.6411C24.6846 21.0904 24.7281 21.1012 24.7714 21.1228C24.7823 21.1228 24.7931 21.1337 24.8149 21.1337C24.8475 21.1446 24.8908 21.1554 24.9234 21.1772C24.9343 21.1772 24.9452 21.1881 24.9561 21.1881C24.9994 21.2098 25.0429 21.2207 25.0862 21.2423H25.0971C25.1514 21.264 25.1948 21.2857 25.2383 21.3184H25.2491C25.2926 21.3401 25.3359 21.3726 25.3794 21.3943C25.3903 21.3943 25.3903 21.4052 25.4012 21.4052C25.4445 21.4269 25.4771 21.4594 25.5206 21.4811L25.5313 21.492C25.6616 21.5897 25.7811 21.6982 25.9005 21.8068L25.9114 21.8177C26.0199 21.9371 26.1285 22.0674 26.2153 22.2086C26.4977 22.6429 26.6604 23.1531 26.6604 23.7069C26.6604 25.2159 25.4336 26.4427 23.9246 26.4427C22.4154 26.4427 21.1886 25.2159 21.1886 23.7069C21.1778 22.4366 22.0571 21.3617 23.2515 21.0577ZM12.5682 20.9818C14.0773 20.9818 15.3041 22.2086 15.3041 23.7178C15.3041 25.2268 14.0773 26.4536 12.5682 26.4536C11.0591 26.4536 9.8322 25.2268 9.8322 23.7178C9.8322 22.2086 11.0591 20.9818 12.5682 20.9818ZM37.8216 30.3947C37.5827 31.7844 36.7249 33.0004 35.4654 33.7279C34.2821 34.4119 32.8273 34.629 31.2964 34.8461C30.4605 34.9656 29.5811 35.0959 28.7342 35.3021C26.4759 35.8558 24.3045 36.9414 22.1983 37.9837C19.5058 39.3191 16.9652 40.5786 14.6093 40.5786C13.3824 40.5786 12.2859 40.2311 11.2436 39.5038C8.85508 37.8534 8.9745 34.7593 9.25678 33.0656C9.51735 31.4805 10.2448 29.9931 10.9396 28.5709C10.9831 28.4839 11.0156 28.4079 11.0591 28.3211C11.2979 28.4079 11.5476 28.473 11.8082 28.5165C11.3956 30.8182 12.5682 33.1959 14.8481 34.3684L15.2607 34.5855L15.7058 34.4227C17.6058 33.7496 19.3646 32.6529 20.9171 31.1873C21.7967 30.3622 22.5458 29.472 23.1754 28.5056C23.4251 28.5491 23.6749 28.56 23.9246 28.56C26.1829 28.56 28.0828 27.0073 28.6256 24.9229H30.4496C30.9924 27.0182 32.8924 28.56 35.1506 28.56C36.0518 28.56 36.8878 28.3102 37.6044 27.8869C37.8866 28.701 37.9734 29.5479 37.8216 30.3947Z" fill="white"/>
</g>
<defs>
<clipPath id="clip0_1_75">
<rect width="48" height="48" fill="white"/>
</clipPath>
</defs>
</svg>
