<svg width="48" height="48" viewBox="0 0 48 48" fill="none" xmlns="http://www.w3.org/2000/svg">
<g clip-path="url(#clip0_1_96)">
<path d="M36.75 0H11.25C5.0368 0 0 5.0368 0 11.25V36.75C0 42.9632 5.0368 48 11.25 48H36.75C42.9632 48 48 42.9632 48 36.75V11.25C48 5.0368 42.9632 0 36.75 0Z" fill="#242938"/>
<path d="M40.6875 12.9375H7.3125C6.27698 12.9375 5.4375 13.777 5.4375 14.8125V33.1875C5.4375 34.2231 6.27698 35.0625 7.3125 35.0625H40.6875C41.7231 35.0625 42.5625 34.2231 42.5625 33.1875V14.8125C42.5625 13.777 41.7231 12.9375 40.6875 12.9375Z" stroke="white" stroke-width="2"/>
<path d="M10.125 30.375V17.625H13.875L17.625 22.3125L21.375 17.625H25.125V30.375H21.375V23.0625L17.625 27.75L13.875 23.0625V30.375H10.125ZM33.5625 30.375L27.9375 24.1875H31.6875V17.625H35.4375V24.1875H39.1875L33.5625 30.375Z" fill="white"/>
</g>
<defs>
<clipPath id="clip0_1_96">
<rect width="48" height="48" fill="white"/>
</clipPath>
</defs>
</svg>
