<svg width="48" height="48" viewBox="0 0 48 48" fill="none" xmlns="http://www.w3.org/2000/svg">
<g clip-path="url(#clip0_1_126)">
<path d="M36.75 0H11.25C5.0368 0 0 5.0368 0 11.25V36.75C0 42.9632 5.0368 48 11.25 48H36.75C42.9632 48 48 42.9632 48 36.75V11.25C48 5.0368 42.9632 0 36.75 0Z" fill="#242938"/>
<path d="M9.21713 18.7961H14.5436C16.107 18.8093 17.2399 19.26 17.9423 20.1476C18.6446 21.0353 18.8764 22.2476 18.6379 23.7848C18.5452 24.4871 18.3397 25.176 18.0217 25.8518C17.7169 26.5275 17.2931 27.1369 16.7498 27.6803C16.0871 28.3691 15.3784 28.8064 14.6231 28.992C13.8679 29.1776 13.086 29.2703 12.2779 29.2703H9.89288L9.13763 33.0465H6.375L9.21713 18.7961ZM11.5425 21.0619L10.35 27.0244C10.4295 27.0375 10.509 27.0443 10.5885 27.0443C10.6811 27.0443 10.7741 27.0443 10.8668 27.0443C12.1388 27.0574 13.1989 26.9318 14.0468 26.6666C14.8946 26.3884 15.4646 25.4213 15.756 23.7649C15.9945 22.3736 15.756 21.5719 15.0405 21.36C14.3381 21.1481 13.4572 21.0488 12.3971 21.0619C12.2381 21.075 12.0859 21.0818 11.94 21.0818C11.8076 21.0818 11.6685 21.0818 11.5226 21.0818L11.5425 21.0619Z" fill="white"/>
<path d="M21.7849 15H24.5276L23.7525 18.7961H26.217C27.5685 18.8228 28.5754 19.101 29.238 19.6309C29.9138 20.1607 30.1125 21.168 29.8342 22.6519L28.5026 29.2703H25.7201L26.9921 22.95C27.1245 22.2874 27.0848 21.8171 26.8729 21.5389C26.661 21.2606 26.2039 21.1215 25.5015 21.1215L23.2954 21.1016L21.6656 29.2703H18.9229L21.7849 15Z" fill="white"/>
<path d="M32.7795 18.7961H38.106C39.6694 18.8093 40.8022 19.26 41.5046 20.1476C42.207 21.0353 42.4387 22.2476 42.2002 23.7848C42.1076 24.4871 41.9021 25.176 41.5841 25.8518C41.2792 26.5275 40.8555 27.1369 40.3121 27.6803C39.6495 28.3691 38.9408 28.8064 38.1855 28.992C37.4303 29.1776 36.6484 29.2703 35.8402 29.2703H33.4552L32.7 33.0465H29.9374L32.7795 18.7961ZM35.1049 21.0619L33.9124 27.0244C33.9919 27.0375 34.0714 27.0443 34.1509 27.0443C34.2435 27.0443 34.3365 27.0443 34.4291 27.0443C35.7011 27.0574 36.7612 26.9318 37.6091 26.6666C38.457 26.3884 39.027 25.4213 39.3184 23.7649C39.5569 22.3736 39.3184 21.5719 38.6029 21.36C37.9005 21.1481 37.0196 21.0488 35.9595 21.0619C35.8005 21.075 35.6482 21.0818 35.5024 21.0818C35.37 21.0818 35.2309 21.0818 35.085 21.0818L35.1049 21.0619Z" fill="white"/>
</g>
<defs>
<clipPath id="clip0_1_126">
<rect width="48" height="48" fill="white"/>
</clipPath>
</defs>
</svg>
