<svg width="56" height="56" viewBox="0 0 56 56" fill="none" xmlns="http://www.w3.org/2000/svg">
<g clip-path="url(#clip0_2_5)" filter="url(#filter0_d_2_5)">
<path d="M40.75 0H15.25C9.0368 0 4 5.0368 4 11.25V36.75C4 42.9632 9.0368 48 15.25 48H40.75C46.9632 48 52 42.9632 52 36.75V11.25C52 5.0368 46.9632 0 40.75 0Z" fill="#242938"/>
<path d="M27.8648 5.4375C18.345 5.4375 18.9395 9.56588 18.9395 9.56588L18.9501 13.8428H28.0347V15.127H15.3417C15.3417 15.127 9.25 14.4361 9.25 24.0416C9.25 33.6472 14.567 33.3068 14.567 33.3068H17.7402V28.8493C17.7402 28.8493 17.5692 23.5324 22.9724 23.5324H31.9825C31.9825 23.5324 37.0448 23.6141 37.0448 18.6398V10.4149C37.0448 10.4149 37.8134 5.4375 27.8648 5.4375ZM22.8556 8.31356C23.7595 8.31356 24.49 9.04408 24.49 9.94792C24.49 10.8518 23.7595 11.5823 22.8556 11.5823C21.9517 11.5823 21.2212 10.8518 21.2212 9.94792C21.2212 9.04408 21.9517 8.31356 22.8556 8.31356Z" fill="url(#paint0_linear_2_5)"/>
<path d="M28.1352 42.7421C37.6549 42.7421 37.0606 38.614 37.0606 38.614L37.0499 34.3369H27.9653V33.0527H40.6583C40.6583 33.0527 46.75 33.7436 46.75 24.138C46.75 14.5324 41.4331 14.8731 41.4331 14.8731H38.2598V19.3305C38.2598 19.3305 38.4308 24.6475 33.0276 24.6475H24.0175C24.0175 24.6475 18.9551 24.5655 18.9551 29.5399V37.7648C18.9551 37.7648 18.1865 42.7421 28.1352 42.7421ZM33.1444 39.8661C32.2405 39.8661 31.51 39.1356 31.51 38.2318C31.51 37.3279 32.2405 36.5974 33.1444 36.5974C34.0482 36.5974 34.7789 37.3279 34.7789 38.2318C34.7789 39.1356 34.0482 39.8661 33.1444 39.8661Z" fill="url(#paint1_linear_2_5)"/>
</g>
<defs>
<filter id="filter0_d_2_5" x="0" y="0" width="56" height="56" filterUnits="userSpaceOnUse" color-interpolation-filters="sRGB">
<feFlood flood-opacity="0" result="BackgroundImageFix"/>
<feColorMatrix in="SourceAlpha" type="matrix" values="0 0 0 0 0 0 0 0 0 0 0 0 0 0 0 0 0 0 127 0" result="hardAlpha"/>
<feOffset dy="4"/>
<feGaussianBlur stdDeviation="2"/>
<feComposite in2="hardAlpha" operator="out"/>
<feColorMatrix type="matrix" values="0 0 0 0 0 0 0 0 0 0 0 0 0 0 0 0 0 0 0.25 0"/>
<feBlend mode="normal" in2="BackgroundImageFix" result="effect1_dropShadow_2_5"/>
<feBlend mode="normal" in="SourceGraphic" in2="effect1_dropShadow_2_5" result="shape"/>
</filter>
<linearGradient id="paint0_linear_2_5" x1="12.8537" y1="8.793" x2="31.4374" y2="27.1912" gradientUnits="userSpaceOnUse">
<stop stop-color="#387EB8"/>
<stop offset="1" stop-color="#366994"/>
</linearGradient>
<linearGradient id="paint1_linear_2_5" x1="24.2605" y1="20.6072" x2="44.2173" y2="39.4729" gradientUnits="userSpaceOnUse">
<stop stop-color="#FFE052"/>
<stop offset="1" stop-color="#FFC331"/>
</linearGradient>
<clipPath id="clip0_2_5">
<rect width="48" height="48" fill="white" transform="translate(4)"/>
</clipPath>
</defs>
</svg>
