<svg width="48" height="48" viewBox="0 0 48 48" fill="none" xmlns="http://www.w3.org/2000/svg">
<g clip-path="url(#clip0_134_50)">
<mask id="mask0_134_50" style="mask-type:luminance" maskUnits="userSpaceOnUse" x="0" y="0" width="48" height="48">
<path d="M36.75 0H11.25C5.0368 0 0 5.0368 0 11.25V36.75C0 42.9632 5.0368 48 11.25 48H36.75C42.9632 48 48 42.9632 48 36.75V11.25C48 5.0368 42.9632 0 36.75 0Z" fill="white"/>
</mask>
<g mask="url(#mask0_134_50)">
<path d="M11.25 0C5.03679 0 0 5.03679 0 11.25V36.75C0 42.9632 5.03679 48 11.25 48H31.5863C31.2527 47.0169 30.9915 45.4601 30.8445 43.6832C30.7179 42.1547 30.6759 40.4636 30.7461 38.8326C30.7271 38.5914 30.7157 38.4347 30.7157 38.4347C30.7157 38.4347 30.3643 36.0703 29.8586 34.128C29.6348 33.2659 29.3799 32.4863 29.1124 32.0344C28.9746 31.8013 29.1274 30.8436 29.5119 29.4251C29.7369 29.8134 30.6863 31.4749 30.8769 32.0104C31.0916 32.6156 31.1366 32.7891 31.1366 32.7891C31.1366 32.7891 30.6159 30.1131 29.7617 28.5516C29.949 27.9202 30.1727 27.2226 30.4258 26.4767C30.7217 26.9955 31.3942 28.1869 31.6372 28.7514C31.6597 28.8038 31.68 28.8529 31.6948 28.8934C31.7293 28.9913 31.7584 29.0743 31.7844 29.1504C31.9215 29.5476 31.9549 29.6739 31.9549 29.6739C31.9549 29.6739 31.9041 29.4141 31.8096 29.0132C31.7696 28.8439 31.7199 28.6448 31.6646 28.4327C31.4494 27.606 31.1224 26.5237 30.7037 25.6757C31.7784 20.0893 35.2376 12.7745 38.9644 8.82542C39.2856 8.48539 39.6082 8.16707 39.9315 7.88016C42.1101 5.94889 44.3175 5.29656 46.1406 6.92053C47.4594 8.09574 47.9991 9.71899 48 11.5876V11.25C48 5.03679 42.9632 0 36.75 0H11.25Z" fill="#D9D9D9"/>
<path d="M11.25 0C5.03679 0 0 5.03679 0 11.25V36.75C0 42.9632 5.03679 48 11.25 48H31.5863C31.2527 47.0169 30.9915 45.4601 30.8445 43.6832C30.7179 42.1547 30.6759 40.4636 30.7461 38.8326C30.7271 38.5914 30.7157 38.4347 30.7157 38.4347C30.7157 38.4347 30.3643 36.0703 29.8586 34.128C29.6348 33.2659 29.3799 32.4863 29.1124 32.0344C28.9746 31.8013 29.1274 30.8436 29.5119 29.4251C29.7369 29.8134 30.6863 31.4749 30.8769 32.0104C31.0916 32.6156 31.1366 32.7891 31.1366 32.7891C31.1366 32.7891 30.6159 30.1131 29.7617 28.5516C29.949 27.9202 30.1727 27.2226 30.4258 26.4767C30.7217 26.9955 31.3942 28.1869 31.6372 28.7514C31.6597 28.8038 31.68 28.8529 31.6948 28.8934C31.7293 28.9913 31.7584 29.0743 31.7844 29.1504C31.9215 29.5476 31.9549 29.6739 31.9549 29.6739C31.9549 29.6739 31.9041 29.4141 31.8096 29.0132C31.7696 28.8439 31.7199 28.6448 31.6646 28.4327C31.4494 27.606 31.1224 26.5237 30.7037 25.6757C31.7784 20.0893 35.2376 12.7745 38.9644 8.82542C39.2856 8.48539 39.6082 8.16707 39.9315 7.88016C42.1101 5.94889 44.3175 5.29656 46.1406 6.92053C47.4594 8.09574 47.9991 9.71899 48 11.5876V11.25C48 5.03679 42.9632 0 36.75 0H11.25Z" fill="url(#paint0_linear_134_50)"/>
<path d="M46.1406 6.92054C44.3175 5.29656 42.1101 5.94889 39.9315 7.88016C39.6083 8.16707 39.2856 8.48539 38.9644 8.82542C35.2376 12.7745 31.7785 20.0893 30.7037 25.6757C31.1224 26.5238 31.4494 27.606 31.6646 28.4327C31.72 28.6448 31.7696 28.8439 31.8096 29.0132C31.9041 29.4141 31.9549 29.6739 31.9549 29.6739C31.9549 29.6739 31.9215 29.5476 31.7844 29.1504C31.7584 29.0743 31.7293 28.9913 31.6948 28.8934C31.68 28.8529 31.6598 28.8038 31.6373 28.7514C31.3943 28.1869 30.7217 26.9955 30.4258 26.4767C30.1727 27.2226 29.949 27.9203 29.7617 28.5516C30.6159 30.1131 31.1366 32.7891 31.1366 32.7891C31.1366 32.7891 31.0916 32.6156 30.8769 32.0104C30.6863 31.4749 29.7369 29.8134 29.5119 29.4251C29.1274 30.8436 28.9746 31.8013 29.1124 32.0344C29.38 32.4863 29.6348 33.2659 29.8586 34.128C30.3643 36.0703 30.7157 38.4347 30.7157 38.4347C30.7157 38.4347 30.7271 38.5914 30.7461 38.8326C30.6759 40.4636 30.7179 42.1547 30.8445 43.6832C31.0119 45.7065 31.3273 47.4448 31.7293 48.375L32.0021 48.2263C31.4119 46.3937 31.1721 43.9918 31.2771 41.2217C31.4359 36.9878 32.4115 31.8818 34.2137 26.5599C37.2587 18.5262 41.4834 12.0804 45.3501 9.00212C41.8258 12.1813 37.056 22.4719 35.6282 26.2826C34.0296 30.5499 32.8965 34.5546 32.2138 38.3912C33.3919 34.7944 37.2009 33.2483 37.2009 33.2483C37.2009 33.2483 39.0692 30.9469 41.2524 27.6589C39.9446 27.9568 37.7972 28.4668 37.0778 28.7687C36.0169 29.2133 35.7309 29.3649 35.7309 29.3649C35.7309 29.3649 39.1678 27.2743 42.1164 26.3278C46.1717 19.9481 50.5896 10.885 46.1406 6.92054Z" fill="#003B57"/>
<path d="M5.34754 9.1875C4.77321 9.1875 4.30618 9.35526 3.94815 9.6906C3.59012 10.0262 3.40849 10.4662 3.40849 11.0053C3.40849 11.2846 3.4536 11.5393 3.54247 11.7727C3.63135 12.0066 3.76965 12.2233 3.95559 12.4191C4.14154 12.615 4.51372 12.8812 5.06841 13.2196C5.74905 13.6296 6.19447 13.9623 6.40824 14.2221C6.62218 14.4817 6.72832 14.7538 6.72832 15.0374C6.72832 15.4171 6.60163 15.7202 6.34127 15.9481C6.08044 16.176 5.73163 16.2896 5.29916 16.2896C4.84301 16.2896 4.44568 16.1309 4.10447 15.8159C3.76326 15.5004 3.59102 15.083 3.58714 14.56H3.375V16.4585H3.58714C3.6519 16.2787 3.74153 16.1868 3.85883 16.1868C3.91526 16.1868 4.04745 16.2252 4.25334 16.2969C4.75429 16.4728 5.16562 16.5577 5.48897 16.5577C6.0462 16.5577 6.52185 16.3651 6.91813 15.9738C7.31383 15.5826 7.51363 15.1108 7.51363 14.56C7.51363 14.1328 7.38172 13.7528 7.12284 13.4216C6.86394 13.0899 6.36047 12.7042 5.60807 12.2612C4.96063 11.8774 4.54037 11.5648 4.34638 11.3211C4.15211 11.0777 4.05236 10.8086 4.05236 10.5132C4.05236 10.1937 4.17131 9.93707 4.40593 9.74569C4.64055 9.55414 4.94797 9.45924 5.33265 9.45924C5.76557 9.45924 6.12643 9.58601 6.41198 9.84116C6.69722 10.0967 6.86216 10.4509 6.91069 10.9061H7.12284V9.26094H6.92558C6.90146 9.34481 6.87913 9.39844 6.85858 9.42253C6.83863 9.44648 6.80023 9.45924 6.74321 9.45924C6.67459 9.45924 6.55221 9.43074 6.37849 9.37477C6.0063 9.2511 5.66316 9.1875 5.34754 9.1875ZM12.2812 9.1875C11.5814 9.1875 10.946 9.35025 10.372 9.6759C9.79701 10.001 9.34191 10.4524 9.00606 11.0273C8.67036 11.6022 8.50361 12.2127 8.50361 12.8634C8.50361 13.7376 8.79362 14.5164 9.37824 15.199C9.96315 15.8811 10.664 16.3062 11.4773 16.4696C11.6633 16.5651 11.9293 16.8119 12.2775 17.2113C12.6699 17.6621 13.0019 17.9872 13.2749 18.1808C13.5477 18.3745 13.8421 18.5165 14.1533 18.6105C14.4647 18.704 14.8015 18.75 15.1656 18.75C15.6066 18.75 16.0014 18.6744 16.3491 18.5186L16.271 18.3277C16.0691 18.3995 15.8538 18.4342 15.6271 18.4342C15.3194 18.4342 15.0084 18.3341 14.6967 18.1331C14.3854 17.9316 13.9961 17.5471 13.5317 16.98C13.3135 16.7082 13.1628 16.5368 13.0777 16.4696C13.9675 16.2981 14.6992 15.8726 15.2698 15.1916C15.8403 14.5109 16.1258 13.7341 16.1258 12.8634C16.1258 11.8296 15.7531 10.9608 15.013 10.2524C14.2724 9.54403 13.3616 9.1875 12.2812 9.1875ZM16.6096 9.1875L16.6208 9.41151C17.0868 9.41151 17.3478 9.54694 17.4061 9.81913C17.4278 9.91652 17.4378 10.0963 17.4396 10.3553L17.4359 15.3091C17.432 15.6791 17.3786 15.9153 17.2759 16.0179C17.173 16.1197 16.9991 16.1834 16.7474 16.2088L16.7362 16.4328H21.381L21.5001 15.3091H21.288C21.2274 15.6152 21.0885 15.8345 20.8674 15.9591C20.6456 16.0846 20.2537 16.1464 19.6875 16.1464H19.2484C18.739 16.1464 18.4442 15.9647 18.3664 15.5992C18.3503 15.5269 18.3448 15.4494 18.344 15.3642L18.3626 10.3553C18.3625 9.98587 18.4098 9.73834 18.5078 9.61716C18.6068 9.49641 18.7853 9.42883 19.0436 9.41151L19.0326 9.1875H16.6096ZM12.3557 9.45924C13.145 9.45924 13.7894 9.76597 14.2873 10.3846C14.7849 11.0035 15.0316 11.8518 15.0316 12.9258C15.0316 13.9436 14.7814 14.7586 14.2798 15.3715C13.7783 15.9843 13.1107 16.2896 12.2812 16.2896C11.4843 16.2896 10.8381 15.9748 10.3422 15.3422C9.84673 14.7095 9.60154 13.8881 9.60154 12.8781C9.60154 11.8402 9.84971 11.0093 10.3496 10.3883C10.8492 9.76798 11.5183 9.45924 12.3557 9.45924ZM23.0372 10.5242C22.9239 10.5242 22.8375 10.5619 22.773 10.638C22.7068 10.7138 22.6866 10.8056 22.7096 10.9171C22.7319 11.0253 22.7938 11.1201 22.8921 11.1999C22.9897 11.2796 23.0951 11.3211 23.2084 11.3211C23.3179 11.3211 23.4015 11.2796 23.4615 11.1999C23.5215 11.1201 23.5397 11.0253 23.5174 10.9171C23.4941 10.8056 23.4345 10.7138 23.3424 10.638C23.2492 10.5619 23.1467 10.5242 23.0372 10.5242ZM26.1002 11.2844C25.9076 12.015 25.4904 12.4104 24.8498 12.4742L24.8571 12.6835H25.6052L25.5904 15.1585C25.5915 15.5817 25.6046 15.8634 25.635 16.0068C25.7087 16.3501 25.9359 16.5246 26.316 16.5246C26.8661 16.5246 27.4433 16.194 28.0466 15.5331L27.8644 15.3789C27.4286 15.8141 27.0433 16.0325 26.7069 16.0325C26.5001 16.0325 26.3719 15.9152 26.3235 15.6837C26.3102 15.6275 26.3049 15.5617 26.3049 15.4854L26.3124 12.6835H27.4549L27.4438 12.3493H26.316V11.2844H26.1002ZM30.5179 12.2171C29.8789 12.2171 29.3589 12.5232 28.9549 13.1315C28.5527 13.7408 28.4282 14.4158 28.5864 15.1585C28.6794 15.5936 28.8647 15.9308 29.1484 16.1684C29.4315 16.406 29.7907 16.5246 30.2201 16.5246C30.6201 16.5246 31.1769 16.4247 31.4111 16.2235C31.6461 16.0224 31.8626 15.6966 32.0625 15.2504L31.9024 15.0851C31.5836 15.664 30.9399 15.9554 30.4547 15.9554C29.7874 15.9554 29.3788 15.5942 29.2266 14.8758C29.2067 14.7841 29.1919 14.6856 29.1818 14.582C29.9756 14.458 30.5771 14.2384 30.9832 13.921C31.3888 13.6034 31.7962 13.2668 31.7201 12.9111C31.6747 12.6998 31.5636 12.5337 31.3926 12.4081C31.2193 12.2825 30.7693 12.2171 30.5179 12.2171ZM23.5322 12.2428L22.1552 12.5549V12.7973L22.6314 12.7385C22.8622 12.7385 22.998 12.8416 23.0409 13.047C23.0554 13.1158 23.0644 13.2123 23.067 13.3335L23.052 15.5552C23.0483 15.8626 23.0136 16.0413 22.9442 16.095C22.8741 16.1487 22.6892 16.1758 22.3896 16.1758L22.3821 16.3851H24.5668L24.5631 16.1758C24.2595 16.1758 24.0628 16.1521 23.9751 16.106C23.8888 16.0601 23.8296 15.9767 23.8039 15.8489C23.784 15.7568 23.7754 15.5982 23.7741 15.3789L23.7816 12.2428H23.5322ZM30.1682 12.6541C30.3011 12.6541 30.4296 12.7048 30.5589 12.8047C30.6864 12.9042 30.7642 13.0149 30.7896 13.1351C30.9142 13.7258 30.3834 14.1342 29.1892 14.3617C29.1551 13.931 29.2309 13.54 29.4238 13.1866C29.6152 12.8335 29.8646 12.6541 30.1682 12.6541Z" fill="#003B57"/>
</g>
</g>
<defs>
<linearGradient id="paint0_linear_134_50" x1="27.6776" y1="0.982294" x2="27.6776" y2="45.3306" gradientUnits="userSpaceOnUse">
<stop stop-color="#97D9F6"/>
<stop offset="0.920245" stop-color="#0F80CC"/>
<stop offset="1" stop-color="#0F80CC"/>
</linearGradient>
<clipPath id="clip0_134_50">
<rect width="48" height="48" fill="white"/>
</clipPath>
</defs>
</svg>
