<svg width="48" height="48" viewBox="0 0 48 48" fill="none" xmlns="http://www.w3.org/2000/svg">
<g clip-path="url(#clip0_2_53)">
<path d="M36.75 0H11.25C5.0368 0 0 5.0368 0 11.25V36.75C0 42.9632 5.0368 48 11.25 48H36.75C42.9632 48 48 42.9632 48 36.75V11.25C48 5.0368 42.9632 0 36.75 0Z" fill="#242938"/>
<path d="M6.32173 18.789C6.32173 18.789 5.43403 18.1491 6.49928 17.2947L8.98116 15.0754C8.98116 15.0754 9.69131 14.3282 10.4422 14.9792L33.345 32.319V40.6339C33.345 40.6339 33.334 41.9396 31.6583 41.7953L6.32173 18.789Z" fill="#2489CA"/>
<path d="M12.225 24.1484L6.32172 29.5152C6.32172 29.5152 5.71512 29.9666 6.32172 30.773L9.06252 33.2658C9.06252 33.2658 9.71351 33.965 10.6752 33.1696L16.9335 28.4242L12.225 24.1484Z" fill="#1070B3"/>
<path d="M22.5888 24.1929L33.4153 15.926L33.345 7.65554C33.345 7.65554 32.8826 5.85053 31.3402 6.79002L16.9335 19.9021L22.5888 24.1929Z" fill="#0877B9"/>
<path d="M31.6583 41.8065C32.2871 42.45 33.0491 42.2392 33.0491 42.2392L41.4861 38.0818C42.5661 37.3456 42.4144 36.4321 42.4144 36.4321V11.6059C42.4144 10.5147 41.2973 10.1375 41.2973 10.1375L33.985 6.61252C32.3871 5.62495 31.3403 6.79006 31.3403 6.79006C31.3403 6.79006 32.6865 5.82099 33.345 7.65558V40.4821C33.345 40.7079 33.2968 40.9297 33.2008 41.1296C33.0085 41.5179 32.5905 41.8803 31.5881 41.7286L31.6583 41.8065Z" fill="#3C99D4"/>
</g>
<defs>
<clipPath id="clip0_2_53">
<rect width="48" height="48" fill="white"/>
</clipPath>
</defs>
</svg>
