<svg width="48" height="48" viewBox="0 0 48 48" fill="none" xmlns="http://www.w3.org/2000/svg">
<g clip-path="url(#clip0_2_64)">
<path d="M36.75 0H11.25C5.0368 0 0 5.0368 0 11.25V36.75C0 42.9632 5.0368 48 11.25 48H36.75C42.9632 48 48 42.9632 48 36.75V11.25C48 5.0368 42.9632 0 36.75 0Z" fill="#242938"/>
<path d="M24.0416 3.375L42.2706 13.6875V34.3125L24.0416 44.625L5.8125 34.3125V13.6875L24.0416 3.375Z" fill="white"/>
<path d="M39.0154 33.6009L24.6431 41.7305V35.3986L33.5978 30.4728L39.0154 33.6009ZM39.9984 32.7106V15.7087L34.7391 18.744V29.6718L39.9984 32.7106ZM9.00938 33.6009L23.3816 41.7305V35.3986L14.4269 30.4728L9.00938 33.6009ZM8.02625 32.7106V15.7087L13.2856 18.744V29.6718L8.02625 32.7106ZM8.64156 14.6087L23.3816 6.26929V12.3915L13.9388 17.5856L13.8666 17.6268L8.64156 14.6087ZM39.3831 14.6087L24.6431 6.26929V12.3915L34.086 17.5856L34.1582 17.6268L39.3831 14.6087Z" fill="#8ED6FB"/>
<path d="M23.3816 33.9583L14.5472 29.1011V19.4762L23.3816 24.5775V33.9583ZM24.6431 33.9583L33.4776 29.1011V19.4762L24.6431 24.5775V33.9583ZM15.1453 18.3624L24.0141 13.4846L32.8828 18.3624L24.0141 23.4844L15.1453 18.3624Z" fill="#1C78C0"/>
</g>
<defs>
<clipPath id="clip0_2_64">
<rect width="48" height="48" fill="white"/>
</clipPath>
</defs>
</svg>
