<svg width="48" height="48" viewBox="0 0 48 48" fill="none" xmlns="http://www.w3.org/2000/svg">
  <g clip-path="url(#clip0_1_103)">
    <path
      d="M36.75 0H11.25C5.0368 0 0 5.0368 0 11.25V36.75C0 42.9632 5.0368 48 11.25 48H36.75C42.9632 48 48 42.9632 48 36.75V11.25C48 5.0368 42.9632 0 36.75 0Z"
      fill="#023430" />
    <path
      d="M32.0949 20.1733C30.1193 11.4581 26.0018 9.13794 24.9514 7.49786C24.5183 6.77537 24.1344 6.02436 23.8029 5.25C23.7474 6.02422 23.6454 6.51201 22.9873 7.09912C21.666 8.27726 16.0541 12.8504 15.5818 22.7528C15.1417 31.9856 22.3693 37.6787 23.3241 38.2673C24.0583 38.6286 24.9525 38.2749 25.3888 37.9432C28.8728 35.5522 33.633 29.1776 32.0987 20.1733"
      fill="#10AA50" />
    <path
      d="M24.1022 33.3508C23.9203 35.6361 23.79 36.964 23.328 38.2699C23.328 38.2699 23.6312 40.4455 23.8442 42.75H24.5977C24.7776 41.1272 25.0519 39.5162 25.4198 37.9253C24.4442 37.4453 24.1397 35.3561 24.1022 33.3508Z"
      fill="#B8C4C2" />
    <path
      d="M25.4184 37.9265C24.4326 37.471 24.1474 35.3378 24.1035 33.3507C24.3472 30.0727 24.4183 26.7841 24.3165 23.4985C24.2648 21.7747 24.3409 7.53133 23.8918 5.44604C24.1991 6.15232 24.5529 6.83731 24.9514 7.49649C26.0018 9.13786 30.1206 11.458 32.0949 20.1732C33.633 29.1622 28.8986 35.5199 25.4184 37.9265Z"
      fill="#12924F" />
  </g>
  <defs>
    <clipPath id="clip0_1_103">
      <rect width="48" height="48" fill="white" />
    </clipPath>
  </defs>
</svg>
