<svg width="48" height="48" viewBox="0 0 48 48" fill="none" xmlns="http://www.w3.org/2000/svg">
  <g clip-path="url(#clip0_134_88)">
    <path
      d="M36.75 0H11.25C5.0368 0 0 5.0368 0 11.25V36.75C0 42.9632 5.0368 48 11.25 48H36.75C42.9632 48 48 42.9632 48 36.75V11.25C48 5.0368 42.9632 0 36.75 0Z"
      fill="#242938" />
    <path fill-rule="evenodd" clip-rule="evenodd"
      d="M17.4774 41.8013L9.375 9L41.8556 18.3514L17.4774 41.8013Z" stroke="white"
      stroke-width="0.75" stroke-miterlimit="10" stroke-linejoin="round" />
    <path fill-rule="evenodd" clip-rule="evenodd"
      d="M25.6093 13.6766L29.6576 30.0821L13.4263 25.4049L25.6093 13.6766Z" stroke="white"
      stroke-width="0.75" stroke-miterlimit="10" stroke-linejoin="round" />
    <path fill-rule="evenodd" clip-rule="evenodd"
      d="M21.5818 27.63L19.5711 19.4803L27.6351 21.7952L21.5818 27.63Z" stroke="white"
      stroke-width="0.75" stroke-miterlimit="10" stroke-linejoin="round" />
    <path fill-rule="evenodd" clip-rule="evenodd"
      d="M17.5595 11.3406L19.5703 19.4903L11.5063 17.1754L17.5595 11.3406Z" stroke="white"
      stroke-width="0.75" stroke-miterlimit="10" stroke-linejoin="round" />
    <path fill-rule="evenodd" clip-rule="evenodd"
      d="M33.6868 15.9862L35.6976 24.1359L27.6336 21.8211L33.6868 15.9862Z" stroke="white"
      stroke-width="0.75" stroke-miterlimit="10" stroke-linejoin="round" />
    <path fill-rule="evenodd" clip-rule="evenodd"
      d="M21.5828 27.6356L23.5935 35.7853L15.5295 33.4704L21.5828 27.6356Z" stroke="white"
      stroke-width="0.75" stroke-miterlimit="10" stroke-linejoin="round" />
  </g>
  <defs>
    <clipPath id="clip0_134_88">
      <rect width="48" height="48" fill="white" />
    </clipPath>
  </defs>
</svg>
