<svg width="48" height="48" viewBox="0 0 48 48" fill="none" xmlns="http://www.w3.org/2000/svg">
  <g clip-path="url(#clip0_388_26)">
    <path
      d="M36.75 0H11.25C5.0368 0 0 5.0368 0 11.25V36.75C0 42.9632 5.0368 48 11.25 48H36.75C42.9632 48 48 42.9632 48 36.75V11.25C48 5.0368 42.9632 0 36.75 0Z"
      fill="#242938" />
    <g clip-path="url(#clip1_388_26)">
      <path
        d="M42.5 23.75C42.5 13.3944 34.1056 5 23.75 5C13.3944 5 5 13.3944 5 23.75C5 32.5437 11.0538 39.9214 19.2205 41.9482V29.4796H15.3541V23.75H19.2205V21.2812C19.2205 14.8988 22.1085 11.9408 28.3738 11.9408C29.5621 11.9408 31.6117 12.1744 32.4501 12.4072V17.6012C32.0074 17.5548 31.2389 17.5312 30.2841 17.5312C27.2097 17.5312 26.0214 18.696 26.0214 21.724V23.75H32.1459L31.0938 29.4796H26.0214V42.363C35.3057 41.2417 42.5 33.3364 42.5 23.75Z"
        fill="#0866FF" />
      <path
        d="M31.0942 29.4796L32.1462 23.75H26.0217V21.724C26.0217 18.696 27.2101 17.5312 30.2845 17.5312C31.2393 17.5312 32.0077 17.5548 32.4505 17.6012V12.4072C31.6121 12.1744 29.5625 11.9408 28.3741 11.9408C22.1089 11.9408 19.2209 14.8996 19.2209 21.2812V23.75H15.3545V29.4796H19.2209V41.9482C20.6715 42.3077 22.1885 42.5 23.7504 42.5C24.5195 42.5 25.2769 42.4529 26.0217 42.363V29.4796H31.0942Z"
        fill="white" />
    </g>
  </g>
  <defs>
    <clipPath id="clip0_388_26">
      <rect width="48" height="48" fill="white" />
    </clipPath>
    <clipPath id="clip1_388_26">
      <rect width="37.5" height="37.5" fill="white" transform="translate(5 5)" />
    </clipPath>
  </defs>
</svg>
