<svg width="48" height="48" viewBox="0 0 48 48" fill="none" xmlns="http://www.w3.org/2000/svg">
  <g clip-path="url(#clip0_388_59)">
    <path
      d="M36.75 0H11.25C5.0368 0 0 5.0368 0 11.25V36.75C0 42.9632 5.0368 48 11.25 48H36.75C42.9632 48 48 42.9632 48 36.75V11.25C48 5.0368 42.9632 0 36.75 0Z"
      fill="#242938" />
    <g clip-path="url(#clip1_388_59)">
      <path
        d="M23.75 5C13.3953 5 5 13.5268 5 24.0436C5 32.9671 11.05 40.4338 19.2063 42.5C19.1188 42.2429 19.0625 41.9446 19.0625 41.5748V38.3199C18.3016 38.3199 17.0266 38.3199 16.7062 38.3199C15.4234 38.3199 14.2828 37.7597 13.7297 36.7187C13.1156 35.5618 13.0094 33.7923 11.4875 32.71C11.0359 32.3498 11.3797 31.9387 11.9 31.9943C12.8609 32.2704 13.6578 32.9401 14.4078 33.9336C15.1547 34.9286 15.5062 35.1539 16.9016 35.1539C17.5781 35.1539 18.5906 35.1143 19.5437 34.9619C20.0562 33.64 20.9422 32.4228 22.025 31.8483C15.7812 31.196 12.8016 28.0412 12.8016 23.7579C12.8016 21.9139 13.575 20.1301 14.8891 18.6273C14.4578 17.1355 13.9156 14.0933 15.0547 12.9348C17.8641 12.9348 19.5625 14.7852 19.9703 15.2851C21.3703 14.7979 22.9078 14.5218 24.5234 14.5218C26.1422 14.5218 27.6859 14.7979 29.0891 15.2883C29.4922 14.7916 31.1922 12.9348 34.0078 12.9348C35.1516 14.0949 34.6031 17.1498 34.1672 18.6384C35.4734 20.1381 36.2422 21.9171 36.2422 23.7579C36.2422 28.038 33.2672 31.1913 27.0328 31.8467C28.7484 32.756 30 35.311 30 37.236V41.5748C30 41.7398 29.9641 41.8589 29.9453 42.0001C37.2516 39.3991 42.5 32.3529 42.5 24.0436C42.5 13.5268 34.1047 5 23.75 5Z"
        fill="white" />
    </g>
  </g>
  <defs>
    <clipPath id="clip0_388_59">
      <rect width="48" height="48" fill="white" />
    </clipPath>
    <clipPath id="clip1_388_59">
      <rect width="37.5" height="37.5" fill="white" transform="translate(5 5)" />
    </clipPath>
  </defs>
</svg>
