<svg width="48" height="48" viewBox="0 0 48 48" fill="none" xmlns="http://www.w3.org/2000/svg">
  <g clip-path="url(#clip0_388_56)">
    <path
      d="M36.75 0H11.25C5.0368 0 0 5.0368 0 11.25V36.75C0 42.9632 5.0368 48 11.25 48H36.75C42.9632 48 48 42.9632 48 36.75V11.25C48 5.0368 42.9632 0 36.75 0Z"
      fill="#242938" />
    <g clip-path="url(#clip1_388_56)">
      <path
        d="M13.5227 37.7465V23.2579L9.02929 19.147L5 16.8658V35.1897C5 36.6045 6.14631 37.7465 7.55682 37.7465H13.5227Z"
        fill="#4285F4" />
      <path
        d="M33.9775 37.7465H39.9434C41.3582 37.7465 42.5003 36.6002 42.5003 35.1897V16.8658L37.9365 19.4789L33.9775 23.2579V37.7465Z"
        fill="#34A853" />
      <path
        d="M13.5226 23.2579L12.9111 17.5967L13.5226 12.1783L23.7498 19.8488L33.9771 12.1783L34.6611 17.3041L33.9771 23.2579L23.7498 30.9283L13.5226 23.2579Z"
        fill="#EA4335" />
      <path
        d="M33.9775 12.1783V23.2579L42.5003 16.8658V13.4567C42.5003 10.2948 38.8909 8.49225 36.3639 10.3886L33.9775 12.1783Z"
        fill="#FBBC04" />
      <path
        d="M5 16.8658L8.91975 19.8056L13.5227 23.2579V12.1783L11.1364 10.3886C8.60511 8.49225 5 10.2948 5 13.4567V16.8658Z"
        fill="#C5221F" />
    </g>
  </g>
  <defs>
    <clipPath id="clip0_388_56">
      <rect width="48" height="48" fill="white" />
    </clipPath>
    <clipPath id="clip1_388_56">
      <rect width="37.5" height="37.5" fill="white" transform="translate(5 5)" />
    </clipPath>
  </defs>
</svg>
