<svg width="48" height="48" viewBox="0 0 48 48" fill="none" xmlns="http://www.w3.org/2000/svg">
  <g clip-path="url(#clip0_388_67)">
    <path
      d="M36.75 0H11.25C5.0368 0 0 5.0368 0 11.25V36.75C0 42.9632 5.0368 48 11.25 48H36.75C42.9632 48 48 42.9632 48 36.75V11.25C48 5.0368 42.9632 0 36.75 0Z"
      fill="#242938" />
    <g clip-path="url(#clip1_388_67)">
      <circle cx="24" cy="24" r="18" fill="white" />
      <path
        d="M21.75 5.1375C15.162 5.825 9.27547 10.1623 6.59947 16.3C4.87497 20.2625 4.58797 24.825 5.81247 29.0253C7.32497 34.2625 11.2375 38.6873 16.3 40.9003C20.2625 42.6248 24.825 42.9118 29.0255 41.6873C35.3125 39.8748 40.2627 34.7128 41.8877 28.2998C44.4247 18.25 38.2 7.97425 28.125 5.575C25.912 5.05 23.963 4.91225 21.75 5.1375ZM22 16.75C23.5995 18.875 24.95 20.625 25 20.625C25.05 20.625 26.713 18.875 28.675 16.75L32.2625 12.875H34.3L33.8625 13.338C33.6125 13.5995 31.9875 15.3623 30.25 17.25C28.5125 19.1375 26.8125 20.9745 26.4745 21.3125L25.875 21.95L30.5625 28.1875C33.1375 31.625 35.25 34.4745 35.25 34.5255C35.25 34.588 33.713 34.625 31.8495 34.625L28.4375 34.6125L25.2625 30.3625C23.075 27.425 22.05 26.1618 21.95 26.2375C21.875 26.3 20.0995 28.213 18 30.4875L14.1875 34.625H13.2245C12.6875 34.625 12.25 34.5995 12.25 34.5625C12.25 34.5255 14.2375 32.3495 16.662 29.7375C19.0752 27.125 21.0752 24.9375 21.0995 24.9005C21.1125 24.8495 19.125 22.1375 16.6875 18.875C14.25 15.625 12.25 12.9375 12.25 12.912C12.25 12.8878 13.787 12.875 15.675 12.875H19.0995L22 16.75Z"
        fill="black" />
      <path
        d="M15.3384 14.55C15.3882 14.6375 18.5374 18.8625 22.3129 23.912L29.1879 33.1122L30.7249 33.125C31.6752 33.125 32.2504 33.075 32.2249 33C32.2134 32.9375 29.0757 28.713 25.2759 23.625L18.3499 14.375H16.8004C15.5134 14.375 15.2504 14.4005 15.3384 14.55Z"
        fill="black" />
    </g>
  </g>
  <defs>
    <clipPath id="clip0_388_67">
      <rect width="48" height="48" fill="white" />
    </clipPath>
    <clipPath id="clip1_388_67">
      <rect width="37.5" height="37.5" fill="white" transform="translate(5 5)" />
    </clipPath>
  </defs>
</svg>
